<svg id="Layer_1" data-name="Layer 1" xmlns="http://www.w3.org/2000/svg" viewBox="0 0 25.61 23.34"><defs><style>.cls-1{fill:#ee5288;}.cls-2{fill:none;}</style></defs><title>activite-creation-icon</title><path class="cls-1" d="M364.5,283.73h-.15c-.37,0-1.41.22-4.14,1.92l2.51,2.44c1.92-3,1.92-4.21,1.77-4.36" transform="translate(-340.32 -283.47)"/><path class="cls-1" d="M362,289.2l-2.81-2.81a56,56,0,0,0-8.27,6.72c-.74.74-1.33,1.4-1.92,2.07l4.14,4.14a22.91,22.91,0,0,0,2.07-1.92,69.92,69.92,0,0,0,6.8-8.2" transform="translate(-340.32 -283.47)"/><path class="cls-1" d="M343.75,301c-.74.74-1.55,3.47-2.07,5.54,2.07-.52,4.87-1.33,5.54-2.07a2.63,2.63,0,0,0,.81-1.85l-2.44-2.44a3.5,3.5,0,0,0-1.85.81" transform="translate(-340.32 -283.47)"/><path class="cls-1" d="M348.26,296.14a6.8,6.8,0,0,0-1.62,3.32l1.11,1.11,1.1,1.11a6.82,6.82,0,0,0,3.32-1.62l-2-2Z" transform="translate(-340.32 -283.47)"/><rect id="_Tranche_" data-name="&lt;Tranche&gt;" class="cls-2" width="25.61" height="23.34"/></svg>