<svg id="Layer_1" data-name="Layer 1" xmlns="http://www.w3.org/2000/svg" viewBox="0 0 25.61 23.34"><defs><style>.cls-1{fill:none;}.cls-2{fill:#ee5288;}</style></defs><title>activite-participative-icon</title><rect id="_Tranche_" data-name="&lt;Tranche&gt;" class="cls-1" width="25.61" height="23.34"/><path class="cls-2" d="M344.38,299.54c-.79-5.25,7-8.8,10-9.67-5.48,2.28-8.81,8-9.81,10.56a6.33,6.33,0,0,1-3.56,3.51c-.55.3-.81,1-.17,1.09,2.91-1.13,4.56-4.39,4.89-4.45a8.34,8.34,0,0,0,7-1.78,2.25,2.25,0,0,1-1.89-.42c3.24-.38,5.65-3.93,8.34-7.31a7.12,7.12,0,0,1,6.47-2.7s-4.34-3.42-9.29-1.76c0,0,0-.93,1.48-1.37-3.5.08-9.21.34-12,5a1.55,1.55,0,0,1-.14-1.71,8.72,8.72,0,0,0-3,7.7,9.27,9.27,0,0,0,1.57,3.31" transform="translate(-340.32 -283.47)"/></svg>