<?xml version="1.0" encoding="utf-8"?>
<!-- Generator: Adobe Illustrator 15.0.0, SVG Export Plug-In  -->
<!DOCTYPE svg PUBLIC "-//W3C//DTD SVG 1.1//EN" "http://www.w3.org/Graphics/SVG/1.1/DTD/svg11.dtd" [
	<!ENTITY ns_flows "http://ns.adobe.com/Flows/1.0/">
]>
<svg version="1.1"
	 xmlns="http://www.w3.org/2000/svg" xmlns:xlink="http://www.w3.org/1999/xlink" xmlns:a="http://ns.adobe.com/AdobeSVGViewerExtensions/3.0/"
	 x="0px" y="0px" width="303px" height="106px" viewBox="-1.87 -1.196 303 106"
	 overflow="visible" enable-background="new -1.87 -1.196 303 106" xml:space="preserve">
<defs>
</defs>
<path fill="#3C3C3B" d="M110.928,45.353h6.9l16.477,37.904h-9.42l-3.255-8.027h-14.725l-3.16,8.027h-9.201L110.928,45.353z
	 M114.137,56.388l-4.603,11.762h9.243L114.137,56.388z"/>
<path fill="#3C3C3B" d="M129.966,45.353h9.533l9.377,24.832h0.089l9.53-24.832h8.935l-15.613,37.904h-6.7L129.966,45.353z"/>
<path fill="#3C3C3B" d="M170.661,45.353h25.738v7.717h-17.403v7.059h16.429v7.713h-16.429v7.695h18.358v7.721h-26.693V45.353z"/>
<path fill="#3C3C3B" d="M234.942,68.638c0,2.258-0.352,4.311-1.014,6.213c-0.684,1.884-1.701,3.517-3.029,4.912
	c-1.35,1.393-3.009,2.501-5,3.272c-2.01,0.798-4.311,1.173-6.922,1.173c-2.629,0-4.954-0.375-6.945-1.173
	c-2.01-0.771-3.667-1.88-5.018-3.272c-1.326-1.396-2.342-3.028-3.008-4.912c-0.686-1.902-1.018-3.955-1.018-6.213V45.353h8.336
	v22.955c0,1.192,0.201,2.278,0.579,3.274c0.351,0.995,0.882,1.856,1.565,2.587c0.686,0.75,1.482,1.305,2.435,1.723
	c0.95,0.4,1.97,0.62,3.073,0.62c1.109,0,2.125-0.22,3.053-0.62c0.928-0.418,1.723-0.973,2.409-1.723
	c0.687-0.73,1.219-1.592,1.596-2.587c0.372-0.996,0.55-2.082,0.55-3.274V45.353h8.357V68.638z"/>
<path fill="#3C3C3B" d="M241.579,45.353h14.66c1.926,0,3.76,0.178,5.486,0.555c1.746,0.375,3.248,1.015,4.554,1.88
	c1.307,0.885,2.345,2.055,3.095,3.54c0.778,1.478,1.174,3.315,1.174,5.528c0,2.675-0.708,4.951-2.102,6.834
	c-1.391,1.873-3.424,3.048-6.099,3.559l9.637,16.01h-10.017l-7.916-15.146h-4.115v15.146h-8.357V45.353z M249.936,61.034h4.91
	c0.752,0,1.549-0.022,2.389-0.071c0.842-0.062,1.592-0.217,2.279-0.482c0.686-0.265,1.237-0.686,1.681-1.26
	c0.442-0.576,0.663-1.373,0.663-2.412c0-0.974-0.178-1.723-0.573-2.299c-0.401-0.574-0.908-1.018-1.504-1.303
	c-0.599-0.312-1.31-0.513-2.081-0.62c-0.797-0.112-1.568-0.158-2.299-0.158h-5.465V61.034z"/>
<path fill="#3C3C3B" d="M293.921,54.621c-0.661-0.863-1.591-1.505-2.74-1.903c-1.175-0.421-2.278-0.62-3.297-0.62
	c-0.616,0-1.239,0.065-1.88,0.225c-0.639,0.13-1.26,0.353-1.812,0.66c-0.574,0.31-1.041,0.708-1.396,1.193
	c-0.35,0.51-0.527,1.107-0.527,1.837c0,1.126,0.423,2.012,1.281,2.612c0.84,0.619,1.922,1.126,3.232,1.568
	c1.302,0.418,2.693,0.841,4.199,1.284c1.502,0.419,2.896,1.015,4.203,1.81c1.303,0.773,2.388,1.84,3.248,3.165
	c0.842,1.304,1.287,3.071,1.287,5.284c0,2.121-0.402,3.957-1.197,5.528c-0.773,1.569-1.835,2.872-3.182,3.892
	c-1.33,1.039-2.879,1.816-4.648,2.301c-1.769,0.507-3.625,0.752-5.598,0.752c-2.473,0-4.752-0.375-6.85-1.129
	c-2.102-0.73-4.068-1.947-5.884-3.628l5.927-6.521c0.861,1.129,1.942,2.012,3.252,2.634c1.305,0.641,2.652,0.948,4.045,0.948
	c0.666,0,1.35-0.091,2.059-0.243c0.684-0.156,1.303-0.398,1.879-0.732c0.55-0.307,0.992-0.729,1.328-1.213
	c0.331-0.51,0.506-1.109,0.506-1.771c0-1.148-0.44-2.057-1.303-2.721c-0.885-0.637-1.97-1.215-3.297-1.682
	c-1.324-0.459-2.738-0.926-4.291-1.391c-1.525-0.463-2.963-1.086-4.268-1.857c-1.324-0.795-2.428-1.834-3.293-3.117
	c-0.887-1.284-1.328-2.986-1.328-5.088c0-2.035,0.422-3.803,1.217-5.35c0.797-1.528,1.881-2.809,3.205-3.847
	c1.351-1.039,2.875-1.817,4.623-2.323c1.768-0.529,3.561-0.795,5.416-0.795c2.147,0,4.205,0.309,6.217,0.929
	c1.99,0.597,3.802,1.612,5.396,3.05L293.921,54.621z"/>
<path fill="#3C3C3B" d="M74.362,89.218h4.53c0.846,0,1.7,0.14,2.554,0.424c0.855,0.286,1.625,0.711,2.312,1.283
	c0.686,0.57,1.243,1.285,1.668,2.143c0.425,0.852,0.636,1.844,0.636,2.974c0,1.144-0.211,2.142-0.636,2.989
	c-0.425,0.848-0.982,1.559-1.668,2.129c-0.688,0.574-1.458,1.002-2.312,1.285c-0.854,0.283-1.708,0.424-2.554,0.424h-4.53V89.218z
	 M75.748,101.597h2.698c1.042,0,1.944-0.16,2.71-0.477c0.763-0.312,1.402-0.732,1.907-1.251c0.509-0.522,0.885-1.112,1.129-1.772
	c0.245-0.662,0.365-1.348,0.365-2.056c0-0.706-0.12-1.392-0.365-2.051c-0.244-0.661-0.62-1.255-1.129-1.774
	c-0.505-0.52-1.145-0.941-1.907-1.254c-0.766-0.314-1.668-0.469-2.71-0.469h-2.698V101.597z"/>
<path fill="#3C3C3B" d="M98.458,97.776c0,0.567-0.071,1.169-0.201,1.802c-0.141,0.641-0.392,1.227-0.766,1.766
	c-0.373,0.539-0.881,0.986-1.531,1.34c-0.649,0.351-1.483,0.531-2.497,0.531c-1.028,0-1.862-0.181-2.504-0.531
	c-0.642-0.354-1.154-0.801-1.525-1.34s-0.625-1.125-0.761-1.766c-0.135-0.633-0.202-1.234-0.202-1.802v-8.558h1.387v8.404
	c0,0.655,0.064,1.221,0.192,1.688c0.128,0.469,0.299,0.864,0.512,1.187c0.211,0.321,0.454,0.573,0.714,0.761
	c0.266,0.185,0.524,0.332,0.792,0.434c0.261,0.102,0.516,0.17,0.759,0.2c0.245,0.035,0.457,0.052,0.636,0.052
	c0.167,0,0.377-0.017,0.626-0.052c0.252-0.03,0.507-0.099,0.772-0.2c0.262-0.102,0.527-0.249,0.789-0.434
	c0.265-0.188,0.502-0.439,0.715-0.761c0.21-0.322,0.38-0.718,0.51-1.187c0.128-0.467,0.192-1.032,0.192-1.688v-8.404h1.39V97.776z"
	/>
<path fill="#3C3C3B" d="M108.404,102.869h-1.388v-13.65h4.201c1.387,0,2.482,0.304,3.289,0.907c0.802,0.603,1.203,1.516,1.203,2.735
	c0,0.951-0.299,1.75-0.897,2.402c-0.597,0.646-1.46,1.023-2.591,1.125l3.934,6.48h-1.696l-3.741-6.344h-2.312V102.869z
	 M108.404,95.255h2.466c0.617,0,1.141-0.065,1.572-0.197c0.43-0.125,0.773-0.297,1.031-0.51c0.256-0.211,0.442-0.461,0.559-0.749
	c0.115-0.292,0.173-0.604,0.173-0.938c0-0.321-0.059-0.624-0.173-0.916c-0.116-0.287-0.303-0.539-0.559-0.757
	c-0.258-0.22-0.602-0.393-1.031-0.514c-0.431-0.12-0.956-0.181-1.572-0.181h-2.466V95.255z"/>
<path fill="#3C3C3B" d="M119.699,102.869h-1.386v-13.65h1.386V102.869z"/>
<path fill="#3C3C3B" d="M134.505,100.71c-0.233,0.346-0.518,0.671-0.86,0.98c-0.337,0.307-0.728,0.573-1.164,0.8
	c-0.438,0.228-0.911,0.403-1.417,0.533c-0.512,0.128-1.045,0.19-1.611,0.19c-1.014,0-1.957-0.181-2.824-0.539
	c-0.868-0.359-1.621-0.861-2.255-1.495c-0.638-0.638-1.136-1.392-1.496-2.264c-0.359-0.874-0.54-1.832-0.54-2.875
	c0-1.04,0.18-1.999,0.54-2.872c0.36-0.873,0.858-1.627,1.496-2.264c0.634-0.634,1.387-1.133,2.255-1.496
	c0.867-0.357,1.81-0.538,2.824-0.538c0.848,0,1.698,0.165,2.544,0.499c0.847,0.339,1.575,0.891,2.178,1.663l-1.214,0.902
	c-0.144-0.218-0.336-0.436-0.579-0.655c-0.244-0.218-0.521-0.41-0.837-0.576c-0.314-0.17-0.654-0.301-1.013-0.404
	c-0.361-0.104-0.719-0.154-1.08-0.154c-0.874,0-1.656,0.16-2.352,0.479c-0.694,0.322-1.283,0.756-1.763,1.295
	c-0.484,0.538-0.854,1.165-1.108,1.88c-0.258,0.71-0.386,1.46-0.386,2.242c0,0.785,0.128,1.535,0.386,2.247
	c0.254,0.714,0.625,1.34,1.108,1.879c0.48,0.543,1.069,0.971,1.763,1.291c0.695,0.322,1.478,0.484,2.352,0.484
	c0.361,0,0.714-0.032,1.07-0.098c0.355-0.064,0.7-0.172,1.041-0.327c0.342-0.153,0.662-0.362,0.964-0.63
	c0.302-0.26,0.582-0.59,0.837-0.992L134.505,100.71z"/>
<path fill="#3C3C3B" d="M136.704,89.218h1.386v5.915h7.441v-5.915h1.389v13.65h-1.389V96.41h-7.441v6.459h-1.386V89.218z"/>
<path fill="#3C3C3B" d="M151.872,101.597h7.307v1.271h-8.696v-13.65h8.466v1.275h-7.076v4.64h6.612v1.276h-6.612V101.597z"/>
<path fill="#3C3C3B" d="M163.168,101.597h6.36v1.271h-7.748v-13.65h1.388V101.597z"/>
<path fill="#3C3C3B" d="M172.672,102.869h-1.389v-13.65h1.389V102.869z"/>
<path fill="#3C3C3B" d="M177.625,101.597h7.305v1.271h-8.691v-13.65h8.461v1.275h-7.074v4.64h6.611v1.276h-6.611V101.597z"/>
<path fill="#3C3C3B" d="M197.289,97.776c0,0.567-0.069,1.169-0.202,1.802c-0.137,0.641-0.39,1.227-0.762,1.766
	c-0.371,0.539-0.884,0.986-1.532,1.34c-0.651,0.351-1.481,0.531-2.497,0.531c-1.028,0-1.862-0.181-2.504-0.531
	c-0.645-0.354-1.152-0.801-1.525-1.34s-0.625-1.125-0.762-1.766c-0.134-0.633-0.201-1.234-0.201-1.802v-8.558h1.389v8.404
	c0,0.655,0.062,1.221,0.191,1.688c0.129,0.469,0.301,0.864,0.509,1.187c0.214,0.321,0.452,0.573,0.716,0.761
	c0.264,0.185,0.525,0.332,0.791,0.434c0.262,0.102,0.516,0.17,0.759,0.2c0.245,0.035,0.458,0.052,0.638,0.052
	c0.17,0,0.376-0.017,0.625-0.052c0.253-0.03,0.51-0.099,0.771-0.2c0.265-0.102,0.527-0.249,0.791-0.434
	c0.262-0.188,0.502-0.439,0.714-0.761c0.214-0.322,0.384-0.718,0.512-1.187c0.128-0.467,0.192-1.032,0.192-1.688v-8.404h1.388
	V97.776z"/>
<path fill="#3C3C3B" d="M129.665,0.964h6.904l16.488,37.896h-9.421l-3.265-8.029h-14.719l-3.162,8.029h-9.205L129.665,0.964z
	 M132.875,11.989l-4.603,11.778h9.26L132.875,11.989z"/>
<path fill="#3C3C3B" d="M155.786,0.964h14.666c1.929,0,3.757,0.186,5.487,0.562c1.729,0.375,3.245,1,4.549,1.873
	c1.306,0.875,2.337,2.051,3.104,3.532c0.769,1.483,1.151,3.329,1.151,5.54c0,2.679-0.694,4.952-2.086,6.827
	c-1.393,1.872-3.426,3.058-6.102,3.559l9.636,16.004h-10.013l-7.92-15.147h-4.121V38.86h-8.352V0.964z M164.137,16.648h4.923
	c0.751,0,1.543-0.027,2.382-0.081c0.842-0.055,1.598-0.213,2.274-0.482c0.679-0.267,1.241-0.688,1.688-1.257
	c0.443-0.572,0.666-1.375,0.666-2.41c0-0.965-0.195-1.729-0.586-2.302c-0.395-0.57-0.895-1.007-1.498-1.311
	c-0.609-0.306-1.305-0.509-2.09-0.616c-0.783-0.108-1.549-0.161-2.299-0.161h-5.461V16.648z"/>
<path fill="#3C3C3B" d="M195.77,8.349h-10.812V0.964h29.979v7.385h-10.814V38.86h-8.352V8.349z"/>
<path fill="#3C3C3B" d="M236.825,10.224c-0.678-0.857-1.598-1.49-2.756-1.9c-1.161-0.411-2.26-0.618-3.29-0.618
	c-0.609,0-1.234,0.075-1.876,0.216c-0.641,0.143-1.25,0.365-1.82,0.667c-0.568,0.305-1.035,0.705-1.39,1.204
	c-0.356,0.501-0.536,1.105-0.536,1.819c0,1.144,0.427,2.017,1.285,2.625c0.854,0.606,1.934,1.125,3.238,1.554
	c1.301,0.427,2.705,0.855,4.203,1.285c1.498,0.428,2.898,1.032,4.201,1.819c1.301,0.782,2.379,1.835,3.236,3.157
	c0.855,1.32,1.283,3.088,1.283,5.297c0,2.106-0.389,3.945-1.176,5.515c-0.784,1.571-1.848,2.872-3.186,3.907
	c-1.337,1.037-2.889,1.804-4.654,2.302c-1.767,0.5-3.633,0.75-5.594,0.75c-2.464,0-4.748-0.375-6.852-1.124
	c-2.105-0.749-4.068-1.961-5.889-3.64l5.942-6.53c0.856,1.142,1.934,2.025,3.235,2.649c1.303,0.624,2.65,0.937,4.042,0.937
	c0.678,0,1.366-0.081,2.062-0.239c0.696-0.163,1.317-0.403,1.872-0.725c0.555-0.321,0.999-0.731,1.338-1.231
	c0.34-0.496,0.51-1.088,0.51-1.767c0-1.141-0.437-2.041-1.311-2.703c-0.873-0.66-1.975-1.219-3.293-1.685
	c-1.319-0.466-2.75-0.93-4.281-1.392c-1.533-0.466-2.965-1.092-4.284-1.875c-1.315-0.785-2.417-1.821-3.294-3.105
	c-0.871-1.283-1.307-2.98-1.307-5.086c0-2.035,0.4-3.817,1.203-5.354c0.803-1.534,1.873-2.817,3.21-3.853
	c1.341-1.033,2.883-1.81,4.631-2.327C227.28,0.26,229.083,0,230.938,0c2.143,0,4.21,0.305,6.208,0.909
	c2,0.607,3.802,1.626,5.408,3.051L236.825,10.224z"/>
<path fill="#3C3C3B" d="M55.674,21.217h-1.388V7.566h4.205c1.388,0,2.483,0.306,3.286,0.909c0.805,0.604,1.205,1.517,1.205,2.736
	c0,0.953-0.297,1.752-0.896,2.403c-0.597,0.645-1.461,1.023-2.592,1.125l3.932,6.478h-1.695l-3.742-6.34h-2.313V21.217z
	 M55.674,13.604h2.469c0.619,0,1.142-0.064,1.571-0.198c0.43-0.124,0.773-0.293,1.029-0.509c0.258-0.209,0.446-0.463,0.562-0.748
	c0.113-0.292,0.172-0.605,0.172-0.939c0-0.321-0.059-0.626-0.172-0.916c-0.116-0.286-0.304-0.539-0.562-0.757
	c-0.256-0.218-0.599-0.39-1.029-0.515c-0.43-0.121-0.953-0.181-1.571-0.181h-2.469V13.604z"/>
<path fill="#3C3C3B" d="M78.885,14.393c0,1.04-0.18,2-0.54,2.874c-0.36,0.872-0.857,1.626-1.493,2.265
	c-0.636,0.633-1.389,1.135-2.255,1.494c-0.87,0.359-1.811,0.54-2.826,0.54c-1.017,0-1.956-0.181-2.822-0.54
	c-0.87-0.359-1.622-0.861-2.257-1.494c-0.636-0.638-1.135-1.393-1.495-2.265c-0.359-0.875-0.54-1.834-0.54-2.874
	c0-1.041,0.181-1.999,0.54-2.873c0.36-0.875,0.859-1.628,1.495-2.266c0.635-0.635,1.387-1.131,2.257-1.495
	c0.866-0.359,1.805-0.54,2.822-0.54c1.016,0,1.957,0.18,2.826,0.54c0.866,0.364,1.619,0.86,2.255,1.495
	c0.636,0.638,1.133,1.39,1.493,2.266C78.705,12.394,78.885,13.353,78.885,14.393z M77.38,14.393c0-0.786-0.128-1.534-0.386-2.243
	c-0.256-0.716-0.625-1.34-1.106-1.88c-0.482-0.54-1.072-0.971-1.766-1.293c-0.692-0.322-1.478-0.48-2.352-0.48
	c-0.874,0-1.659,0.158-2.352,0.48c-0.693,0.322-1.28,0.753-1.762,1.293c-0.483,0.54-0.852,1.164-1.11,1.88
	c-0.257,0.709-0.385,1.458-0.385,2.243c0,0.783,0.128,1.534,0.385,2.248c0.259,0.711,0.627,1.335,1.11,1.875
	c0.482,0.544,1.069,0.972,1.762,1.293c0.693,0.322,1.478,0.484,2.352,0.484c0.874,0,1.66-0.162,2.352-0.484
	c0.694-0.321,1.284-0.749,1.766-1.293c0.481-0.541,0.85-1.165,1.106-1.875C77.252,15.927,77.38,15.176,77.38,14.393z"/>
<path fill="#3C3C3B" d="M91.283,16.128c0,0.564-0.069,1.167-0.204,1.803c-0.133,0.636-0.39,1.225-0.762,1.765
	c-0.372,0.538-0.883,0.982-1.533,1.34c-0.648,0.349-1.48,0.53-2.496,0.53c-1.029,0-1.865-0.181-2.507-0.53
	c-0.642-0.357-1.15-0.802-1.522-1.34c-0.372-0.54-0.627-1.128-0.76-1.765c-0.137-0.636-0.203-1.239-0.203-1.803V7.566h1.388v8.405
	c0,0.656,0.063,1.221,0.191,1.688c0.128,0.473,0.296,0.866,0.513,1.185c0.21,0.321,0.449,0.576,0.712,0.764
	c0.262,0.182,0.527,0.329,0.789,0.434c0.264,0.101,0.519,0.171,0.763,0.2c0.243,0.033,0.454,0.051,0.635,0.051
	c0.168,0,0.375-0.019,0.628-0.051c0.25-0.029,0.506-0.099,0.77-0.2c0.262-0.105,0.528-0.252,0.791-0.434
	c0.263-0.188,0.501-0.443,0.713-0.764c0.211-0.319,0.38-0.712,0.51-1.185c0.129-0.467,0.192-1.033,0.192-1.688V7.566h1.392V16.128z"
	/>
<path fill="#3C3C3B" d="M98.992,21.217h-1.388V8.842h-4.569V7.566h10.526v1.276h-4.569V21.217z"/>
<path fill="#3C3C3B" d="M106.933,19.946h7.307v1.271h-8.694V7.566h8.463v1.276h-7.076v4.642h6.614v1.277h-6.614V19.946z"/>
<path fill="#3C3C3B" d="M74.776,24.793h4.528c0.85,0,1.699,0.142,2.554,0.426c0.857,0.28,1.63,0.71,2.312,1.28
	c0.69,0.572,1.248,1.284,1.67,2.14c0.424,0.856,0.634,1.85,0.634,2.98c0,1.144-0.21,2.138-0.634,2.985
	c-0.423,0.848-0.98,1.558-1.67,2.132c-0.682,0.569-1.455,0.998-2.312,1.28c-0.854,0.282-1.704,0.423-2.554,0.423h-4.528V24.793z
	 M76.164,37.168h2.698c1.041,0,1.944-0.158,2.708-0.471c0.763-0.316,1.402-0.733,1.908-1.253c0.508-0.518,0.883-1.11,1.13-1.771
	c0.244-0.664,0.362-1.347,0.362-2.054c0-0.707-0.118-1.391-0.362-2.053c-0.247-0.66-0.622-1.251-1.13-1.773
	c-0.506-0.523-1.146-0.937-1.908-1.255c-0.764-0.312-1.668-0.473-2.708-0.473h-2.698V37.168z"/>
<path fill="#3C3C3B" d="M90.503,37.168h7.307v1.271h-8.693V24.793h8.463v1.271h-7.077v4.647h6.615v1.272h-6.615V37.168z"/>
<path fill="#3C3C3B" d="M106.87,27.053c-0.602-0.889-1.481-1.333-2.638-1.333c-0.361,0-0.714,0.046-1.061,0.145
	c-0.348,0.096-0.66,0.246-0.935,0.442c-0.278,0.202-0.5,0.458-0.667,0.771c-0.167,0.317-0.248,0.686-0.248,1.109
	c0,0.618,0.17,1.097,0.518,1.44c0.346,0.338,0.78,0.616,1.294,0.833c0.513,0.223,1.074,0.417,1.686,0.591
	c0.612,0.17,1.173,0.401,1.688,0.693c0.514,0.288,0.946,0.673,1.29,1.148c0.348,0.475,0.523,1.123,0.523,1.944
	c0,0.617-0.135,1.173-0.396,1.67c-0.268,0.494-0.613,0.909-1.042,1.242c-0.433,0.333-0.912,0.591-1.447,0.771
	c-0.535,0.178-1.069,0.269-1.609,0.269c-0.833,0-1.63-0.158-2.382-0.47c-0.75-0.317-1.391-0.831-1.917-1.551l1.272-0.907
	c0.294,0.5,0.705,0.903,1.23,1.204c0.524,0.304,1.146,0.455,1.865,0.455c0.346,0,0.689-0.057,1.036-0.163
	c0.348-0.111,0.658-0.271,0.933-0.485c0.276-0.21,0.502-0.472,0.682-0.78c0.181-0.306,0.27-0.663,0.27-1.063
	c0-0.473-0.101-0.867-0.3-1.181c-0.199-0.315-0.464-0.582-0.79-0.792c-0.328-0.213-0.701-0.389-1.121-0.53
	c-0.415-0.141-0.848-0.282-1.288-0.423c-0.445-0.142-0.877-0.301-1.293-0.482c-0.418-0.179-0.791-0.41-1.12-0.683
	c-0.327-0.28-0.591-0.626-0.79-1.041c-0.198-0.42-0.296-0.943-0.296-1.573c0-0.656,0.124-1.229,0.375-1.718
	c0.25-0.486,0.584-0.888,1.003-1.216c0.416-0.321,0.887-0.556,1.416-0.709c0.527-0.155,1.066-0.232,1.62-0.232
	c0.771,0,1.467,0.121,2.099,0.363c0.63,0.245,1.218,0.679,1.756,1.294L106.87,27.053z"/>
<path fill="#3C3C3B" d="M92.615,66.452c-0.864-1.327-1.945-2.392-3.231-3.165c-1.302-0.795-2.718-1.391-4.2-1.81
	c-1.504-0.443-2.92-0.866-4.201-1.284c-1.306-0.442-2.389-0.949-3.252-1.568c-0.864-0.601-1.284-1.486-1.284-2.612
	c0-0.729,0.181-1.327,0.532-1.837c0.355-0.485,0.821-0.884,1.394-1.193c0.575-0.308,1.172-0.531,1.815-0.66
	c0.662-0.16,1.278-0.225,1.878-0.225c1.041,0,2.143,0.199,3.297,0.62c1.146,0.398,2.078,1.04,2.764,1.903l5.729-6.26
	c-1.618-1.438-3.41-2.453-5.419-3.05c-1.994-0.621-4.071-0.932-6.216-0.932c-1.836,0-3.651,0.268-5.395,0.797
	c-1.747,0.506-3.294,1.284-4.621,2.323c-1.348,1.039-2.409,2.319-3.229,3.847c-0.796,1.546-1.196,3.315-1.196,5.35
	c0,2.102,0.447,3.804,1.308,5.088c0.881,1.283,1.967,2.322,3.293,3.117c1.327,0.771,2.744,1.395,4.288,1.857
	c1.527,0.465,2.966,0.932,4.267,1.391c1.329,0.467,2.438,1.045,3.298,1.682c0.885,0.664,1.328,1.57,1.328,2.721
	c0,0.662-0.178,1.262-0.51,1.771c-0.354,0.484-0.798,0.906-1.349,1.213c-0.551,0.334-1.174,0.576-1.881,0.732
	c-0.684,0.152-1.37,0.243-2.054,0.243c-1.395,0-2.744-0.308-4.045-0.95c-1.31-0.62-2.367-1.504-3.232-2.632l-5.623,6.798
	c1.743,1.528,3.58,2.664,5.556,3.352c2.123,0.754,4.402,1.129,6.854,1.129c1.971,0,3.829-0.245,5.598-0.752
	c1.769-0.484,3.319-1.262,4.664-2.301c1.326-1.02,2.388-2.322,3.188-3.892c0.771-1.571,1.169-3.407,1.169-5.528
	C93.896,69.523,93.477,67.755,92.615,66.452z"/>
<path fill="#3C3C3B" d="M64.873,82.426c-2.093,2.67-4.68,5.12-8.216,5.12c-6.193,0-9.885-6.755-12.748-11.277l6.471-11.375
	c2.671-4.711,5.727-8.783,8.121-8.783c0.842,0,1.398,0.463,1.398,1.293c0,0.376-0.279,0.566-0.556,1.02
	c-0.275,0.375-0.563,1.016-0.563,2.131c0,2.126,2.5,3.607,4.446,3.607c1.177,0,2.15-0.301,2.899-0.832
	c-1.12-1.827-1.699-4.037-1.699-6.633c0-1.014,0.105-1.979,0.274-2.92c-1.036-0.469-2.234-0.717-3.507-0.717
	c-4.258,0-6.745,1.859-9.245,5.275c-2.5,3.326-4.62,7.021-6.745,10.725l-2.587,4.434l-8.97-20.336
	c6.659-1.664,19.406-5.725,19.406-14.23c0-7.673-7.849-10.537-14.416-10.537c-8.317,0-17.66,4.899-17.66,14.507
	c0,4.159,0.842,7.862,1.948,11.829C12.662,58.146,0,63.788,0,76.359c0,8.5,5.452,16.542,17.471,16.542
	c7.21,0,10.627-1.384,19.318-8.128c4.325,5.424,8.194,8.101,15.34,8.123c8.395-0.464,11.81-7.421,12.885-10.354
	C64.968,82.502,64.92,82.462,64.873,82.426z M38.27,30.704c4.522,0,6.654,2.761,6.654,6.921c0,7.773-5.082,11.379-12.018,13.414
	c-1.483-3.241-3.052-8.228-3.052-11.833C29.854,34.306,33.185,30.704,38.27,30.704z M24.216,88.462
	c-7.861,0-12.849-8.778-12.849-15.707c0-9.334,3.98-12.476,12.207-15.989c3.141,8.963,7.211,17.558,11.732,25.972
	C32.253,85.513,28.563,88.462,24.216,88.462z"/>
</svg>
