<?xml version="1.0" encoding="utf-8"?>
<!-- Generator: Adobe Illustrator 15.0.0, SVG Export Plug-In  -->
<!DOCTYPE svg PUBLIC "-//W3C//DTD SVG 1.1//EN" "http://www.w3.org/Graphics/SVG/1.1/DTD/svg11.dtd" [
	<!ENTITY ns_flows "http://ns.adobe.com/Flows/1.0/">
]>
<svg version="1.1"
	 xmlns="http://www.w3.org/2000/svg" xmlns:xlink="http://www.w3.org/1999/xlink" xmlns:a="http://ns.adobe.com/AdobeSVGViewerExtensions/3.0/"
	 x="0px" y="0px" width="208px" height="72px" viewBox="-1.123 -0.458 208 72"
	 overflow="visible" enable-background="new -1.123 -0.458 208 72" xml:space="preserve">
<defs>
</defs>
<path fill="#E76453" d="M76.078,31.107h4.732l11.301,25.995h-6.461l-2.232-5.505h-10.1l-2.167,5.505h-6.31L76.078,31.107z
	 M78.279,38.674l-3.158,8.067h6.339L78.279,38.674z"/>
<path fill="#E76453" d="M89.135,31.107h6.538l6.432,17.03h0.061l6.536-17.03h6.128l-10.708,25.995h-4.595L89.135,31.107z"/>
<path fill="#E76453" d="M117.044,31.107h17.651v5.292h-11.935v4.842h11.267v5.289h-11.267v5.277h12.59v5.295h-18.307V31.107z"/>
<path fill="#E76453" d="M161.13,47.077c0,1.549-0.241,2.955-0.695,4.26c-0.47,1.293-1.167,2.412-2.078,3.369
	c-0.926,0.955-2.064,1.716-3.428,2.244c-1.379,0.548-2.957,0.805-4.748,0.805c-1.803,0-3.398-0.257-4.764-0.805
	c-1.379-0.528-2.515-1.289-3.441-2.244c-0.909-0.957-1.605-2.076-2.062-3.369c-0.471-1.305-0.698-2.711-0.698-4.26v-15.97h5.717
	V46.85c0,0.816,0.138,1.561,0.397,2.245c0.24,0.683,0.604,1.272,1.072,1.774c0.472,0.514,1.018,0.895,1.671,1.182
	c0.651,0.274,1.351,0.426,2.107,0.426c0.761,0,1.458-0.151,2.095-0.426c0.636-0.287,1.182-0.668,1.651-1.182
	c0.472-0.501,0.836-1.092,1.095-1.774c0.254-0.685,0.377-1.429,0.377-2.245V31.107h5.731L161.13,47.077L161.13,47.077z"/>
<path fill="#E76453" d="M165.682,31.107h10.054c1.32,0,2.579,0.122,3.764,0.38c1.197,0.257,2.227,0.696,3.123,1.29
	c0.896,0.607,1.607,1.409,2.121,2.428c0.534,1.013,0.806,2.273,0.806,3.791c0,1.835-0.485,3.396-1.44,4.688
	c-0.955,1.284-2.35,2.09-4.184,2.44l6.609,10.98h-6.869l-5.43-10.388h-2.822v10.386h-5.731V31.107L165.682,31.107z M171.414,41.861
	h3.367c0.516,0,1.062-0.015,1.639-0.049c0.577-0.042,1.092-0.149,1.562-0.331s0.848-0.471,1.153-0.863
	c0.304-0.395,0.454-0.941,0.454-1.654c0-0.668-0.121-1.182-0.393-1.576c-0.275-0.395-0.623-0.699-1.031-0.895
	c-0.41-0.214-0.898-0.352-1.428-0.424c-0.546-0.077-1.076-0.108-1.576-0.108h-3.748V41.861L171.414,41.861z"/>
<path fill="#E76453" d="M201.582,37.462c-0.455-0.592-1.092-1.032-1.881-1.305c-0.807-0.289-1.562-0.425-2.26-0.425
	c-0.424,0-0.851,0.044-1.291,0.154c-0.438,0.09-0.863,0.243-1.242,0.453c-0.395,0.212-0.715,0.485-0.957,0.817
	c-0.24,0.351-0.361,0.76-0.361,1.261c0,0.772,0.289,1.38,0.879,1.791c0.576,0.425,1.318,0.772,2.217,1.075
	c0.892,0.287,1.846,0.577,2.879,0.881c1.03,0.287,1.986,0.696,2.883,1.241c0.893,0.53,1.637,1.262,2.227,2.171
	c0.578,0.895,0.883,2.105,0.883,3.624c0,1.454-0.275,2.714-0.82,3.792c-0.53,1.076-1.259,1.969-2.183,2.668
	c-0.912,0.713-1.975,1.246-3.188,1.578c-1.212,0.349-2.486,0.516-3.839,0.516c-1.697,0-3.26-0.257-4.699-0.773
	c-1.44-0.501-2.789-1.336-4.034-2.488l4.065-4.473c0.59,0.774,1.331,1.38,2.229,1.807c0.896,0.439,1.82,0.65,2.774,0.65
	c0.458,0,0.927-0.062,1.413-0.167c0.469-0.106,0.893-0.272,1.288-0.502c0.377-0.21,0.681-0.5,0.911-0.832
	c0.227-0.35,0.348-0.76,0.348-1.214c0-0.788-0.303-1.411-0.895-1.866c-0.607-0.438-1.351-0.834-2.262-1.154
	c-0.907-0.314-1.877-0.635-2.942-0.954c-1.046-0.317-2.032-0.745-2.927-1.273c-0.908-0.545-1.664-1.258-2.259-2.137
	c-0.608-0.882-0.911-2.049-0.911-3.49c0-1.395,0.289-2.608,0.835-3.669c0.547-1.048,1.29-1.926,2.198-2.639
	c0.927-0.712,1.972-1.246,3.17-1.593c1.213-0.362,2.443-0.544,3.715-0.544c1.473,0,2.885,0.211,4.264,0.637
	c1.365,0.409,2.607,1.104,3.701,2.092L201.582,37.462z"/>
<path fill="#FFFFFF" d="M51,61.19h3.107c0.58,0,1.166,0.097,1.751,0.291c0.585,0.195,1.114,0.488,1.585,0.881
	c0.471,0.391,0.852,0.881,1.145,1.469c0.291,0.584,0.436,1.265,0.436,2.04c0,0.785-0.145,1.47-0.436,2.05
	c-0.292,0.582-0.674,1.068-1.145,1.461c-0.472,0.393-1,0.687-1.585,0.881c-0.586,0.193-1.171,0.29-1.751,0.29H51V61.19z
	 M51.951,69.68h1.85c0.714,0,1.333-0.109,1.859-0.326c0.523-0.215,0.961-0.502,1.308-0.858c0.349-0.358,0.606-0.763,0.774-1.216
	c0.168-0.454,0.25-0.924,0.25-1.41c0-0.483-0.082-0.955-0.25-1.406c-0.168-0.453-0.426-0.861-0.774-1.217
	c-0.346-0.357-0.785-0.646-1.308-0.859c-0.525-0.216-1.145-0.322-1.859-0.322h-1.85V69.68z"/>
<path fill="#FFFFFF" d="M67.526,67.059c0,0.39-0.048,0.803-0.138,1.236c-0.097,0.439-0.269,0.842-0.525,1.211
	c-0.255,0.369-0.604,0.676-1.049,0.92c-0.445,0.24-1.017,0.363-1.713,0.363c-0.704,0-1.276-0.124-1.717-0.363
	c-0.44-0.244-0.791-0.551-1.045-0.92c-0.255-0.369-0.43-0.771-0.522-1.211c-0.092-0.434-0.139-0.847-0.139-1.236V61.19h0.951v5.764
	c0,0.449,0.044,0.838,0.132,1.158c0.087,0.321,0.206,0.592,0.351,0.814c0.145,0.22,0.311,0.393,0.49,0.521
	c0.183,0.127,0.359,0.228,0.543,0.297c0.179,0.07,0.354,0.117,0.52,0.138c0.168,0.024,0.313,0.036,0.437,0.036
	c0.115,0,0.259-0.012,0.43-0.036c0.172-0.021,0.349-0.067,0.529-0.138c0.18-0.069,0.361-0.17,0.541-0.297
	c0.182-0.129,0.344-0.301,0.49-0.521c0.144-0.221,0.262-0.493,0.352-0.814c0.087-0.32,0.131-0.708,0.131-1.158V61.19h0.953
	L67.526,67.059L67.526,67.059z"/>
<path fill="#FFFFFF" d="M74.347,70.552h-0.952V61.19h2.881c0.952,0,1.702,0.21,2.255,0.623c0.55,0.414,0.825,1.04,0.825,1.876
	c0,0.651-0.206,1.2-0.616,1.647c-0.409,0.442-1.001,0.702-1.777,0.771l2.698,4.443h-1.163l-2.566-4.35h-1.585L74.347,70.552
	L74.347,70.552z M74.347,65.332h1.691c0.423,0,0.783-0.046,1.078-0.136c0.295-0.086,0.53-0.204,0.707-0.35
	c0.176-0.145,0.303-0.316,0.383-0.515c0.079-0.2,0.12-0.414,0.12-0.643c0-0.22-0.041-0.429-0.12-0.628
	c-0.079-0.197-0.207-0.371-0.383-0.52c-0.177-0.15-0.413-0.27-0.707-0.354c-0.296-0.081-0.655-0.123-1.078-0.123h-1.691V65.332z"/>
<path fill="#FFFFFF" d="M82.093,70.552h-0.95V61.19h0.95V70.552z"/>
<path fill="#FFFFFF" d="M92.248,69.073c-0.159,0.238-0.355,0.46-0.589,0.672c-0.232,0.211-0.5,0.394-0.799,0.549
	c-0.3,0.156-0.625,0.275-0.972,0.365c-0.351,0.088-0.716,0.131-1.104,0.131c-0.696,0-1.343-0.125-1.938-0.37
	c-0.595-0.247-1.112-0.591-1.546-1.025c-0.438-0.437-0.779-0.954-1.025-1.553c-0.247-0.599-0.371-1.257-0.371-1.972
	c0-0.713,0.124-1.37,0.371-1.969c0.246-0.6,0.587-1.116,1.025-1.554c0.435-0.435,0.952-0.777,1.546-1.026
	c0.595-0.244,1.242-0.369,1.938-0.369c0.581,0,1.163,0.114,1.745,0.344c0.581,0.23,1.08,0.61,1.494,1.14l-0.833,0.618
	c-0.099-0.149-0.23-0.299-0.397-0.449c-0.167-0.148-0.357-0.279-0.574-0.395c-0.214-0.117-0.448-0.207-0.695-0.277
	c-0.247-0.071-0.493-0.105-0.739-0.105c-0.6,0-1.136,0.109-1.613,0.328c-0.477,0.221-0.88,0.519-1.21,0.889
	c-0.331,0.369-0.585,0.799-0.76,1.289c-0.176,0.486-0.265,1.001-0.265,1.538c0,0.538,0.088,1.053,0.265,1.541
	c0.175,0.489,0.429,0.919,0.76,1.288c0.33,0.373,0.734,0.666,1.21,0.886c0.477,0.222,1.014,0.332,1.613,0.332
	c0.246,0,0.49-0.021,0.733-0.067c0.244-0.043,0.479-0.117,0.713-0.224c0.235-0.105,0.455-0.249,0.663-0.433
	c0.207-0.178,0.398-0.404,0.574-0.68L92.248,69.073z"/>
<path fill="#FFFFFF" d="M93.755,61.19h0.951v4.057h5.103V61.19h0.954v9.361h-0.954v-4.43h-5.103v4.43h-0.951V61.19z"/>
<path fill="#FFFFFF" d="M104.158,69.68h5.012v0.871h-5.963V61.19h5.806v0.875h-4.853v3.182h4.533v0.875h-4.533v3.559H104.158z"/>
<path fill="#FFFFFF" d="M111.906,69.68h4.363v0.871h-5.314V61.19h0.951V69.68z"/>
<path fill="#FFFFFF" d="M118.423,70.552h-0.953V61.19h0.953V70.552z"/>
<path fill="#FFFFFF" d="M121.821,69.68h5.01v0.871h-5.96V61.19h5.803v0.875h-4.852v3.182h4.533v0.875h-4.533L121.821,69.68
	L121.821,69.68z"/>
<path fill="#FFFFFF" d="M135.306,67.059c0,0.39-0.047,0.802-0.139,1.236c-0.094,0.439-0.267,0.842-0.521,1.211
	s-0.607,0.676-1.051,0.92c-0.447,0.24-1.016,0.363-1.713,0.363c-0.705,0-1.277-0.124-1.717-0.363
	c-0.443-0.244-0.791-0.551-1.046-0.92c-0.257-0.369-0.429-0.771-0.523-1.211c-0.091-0.435-0.138-0.847-0.138-1.236V61.19h0.953
	v5.764c0,0.449,0.042,0.838,0.131,1.158c0.088,0.321,0.206,0.592,0.35,0.814c0.146,0.22,0.309,0.393,0.49,0.521
	c0.182,0.127,0.359,0.228,0.543,0.297c0.18,0.07,0.354,0.117,0.52,0.138c0.169,0.024,0.314,0.036,0.438,0.036
	c0.116,0,0.257-0.012,0.429-0.036c0.173-0.021,0.35-0.068,0.528-0.138c0.181-0.069,0.361-0.17,0.543-0.297
	c0.18-0.129,0.345-0.301,0.489-0.521c0.146-0.221,0.264-0.493,0.352-0.814c0.088-0.32,0.131-0.708,0.131-1.158V61.19h0.951V67.059
	L135.306,67.059z"/>
<path fill="#E76453" d="M88.93,0.663h4.734l11.308,25.99H98.51l-2.241-5.506H86.175l-2.168,5.506h-6.313L88.93,0.663z M91.13,8.224
	l-3.157,8.078h6.35L91.13,8.224z"/>
<path fill="#E76453" d="M106.842,0.663h10.059c1.323,0,2.577,0.127,3.764,0.386c1.187,0.257,2.226,0.686,3.12,1.284
	c0.895,0.601,1.602,1.407,2.129,2.423c0.527,1.017,0.789,2.283,0.789,3.799c0,1.837-0.477,3.396-1.432,4.682
	c-0.955,1.284-2.35,2.098-4.184,2.441l6.607,10.976h-6.867l-5.431-10.388h-2.827v10.388h-5.729L106.842,0.663L106.842,0.663z
	 M112.57,11.42h3.377c0.516,0,1.058-0.019,1.633-0.056c0.578-0.037,1.096-0.146,1.56-0.331c0.466-0.184,0.853-0.472,1.158-0.861
	c0.304-0.394,0.456-0.943,0.456-1.654c0-0.662-0.133-1.186-0.401-1.579c-0.271-0.39-0.614-0.69-1.026-0.898
	c-0.418-0.21-0.896-0.35-1.435-0.422c-0.536-0.074-1.062-0.11-1.577-0.11h-3.745L112.57,11.42L112.57,11.42z"/>
<path fill="#E76453" d="M134.265,5.728h-7.416V0.663h20.561v5.065h-7.416v20.925h-5.729V5.728L134.265,5.728z"/>
<path fill="#E76453" d="M162.421,7.014c-0.465-0.588-1.096-1.022-1.891-1.303c-0.795-0.282-1.549-0.423-2.256-0.423
	c-0.417,0-0.846,0.051-1.286,0.147c-0.439,0.098-0.858,0.25-1.249,0.458c-0.39,0.209-0.709,0.484-0.953,0.826
	c-0.244,0.343-0.367,0.757-0.367,1.247c0,0.785,0.293,1.384,0.881,1.8c0.586,0.416,1.326,0.771,2.221,1.066
	c0.893,0.293,1.855,0.586,2.884,0.881c1.026,0.294,1.986,0.708,2.881,1.248c0.892,0.537,1.632,1.259,2.218,2.166
	c0.588,0.905,0.881,2.118,0.881,3.633c0,1.444-0.268,2.705-0.807,3.782c-0.537,1.078-1.268,1.97-2.186,2.68
	c-0.916,0.711-1.98,1.237-3.191,1.579c-1.211,0.343-2.492,0.515-3.836,0.515c-1.69,0-3.257-0.257-4.699-0.771
	c-1.443-0.514-2.791-1.345-4.039-2.497l4.075-4.479c0.586,0.783,1.326,1.389,2.218,1.817c0.895,0.428,1.818,0.643,2.773,0.643
	c0.465,0,0.936-0.055,1.414-0.164c0.477-0.112,0.903-0.276,1.283-0.497c0.38-0.219,0.686-0.501,0.918-0.844
	c0.232-0.34,0.35-0.746,0.35-1.212c0-0.782-0.3-1.4-0.899-1.854c-0.599-0.453-1.354-0.835-2.259-1.155
	c-0.903-0.319-1.886-0.638-2.936-0.955c-1.052-0.319-2.033-0.749-2.938-1.286c-0.902-0.538-1.658-1.249-2.26-2.129
	c-0.598-0.88-0.896-2.044-0.896-3.488c0-1.396,0.275-2.618,0.825-3.672c0.551-1.053,1.284-1.933,2.202-2.643
	c0.919-0.708,1.977-1.241,3.176-1.596C155.873,0.178,157.109,0,158.381,0c1.47,0,2.888,0.209,4.258,0.623
	c1.372,0.417,2.606,1.115,3.708,2.093L162.421,7.014z"/>
<path fill="#FFFFFF" d="M38.183,14.553h-0.952V5.191h2.883c0.953,0,1.703,0.21,2.253,0.624c0.552,0.415,0.826,1.04,0.826,1.876
	c0,0.654-0.203,1.202-0.614,1.647c-0.409,0.443-1.002,0.703-1.778,0.772l2.696,4.442h-1.161l-2.567-4.348h-1.586L38.183,14.553
	L38.183,14.553z M38.183,9.333h1.693c0.424,0,0.783-0.043,1.078-0.135c0.295-0.085,0.53-0.201,0.705-0.349
	c0.179-0.144,0.306-0.317,0.386-0.513c0.078-0.2,0.118-0.415,0.118-0.644c0-0.22-0.041-0.429-0.118-0.628
	c-0.08-0.197-0.208-0.37-0.386-0.519c-0.175-0.15-0.41-0.268-0.705-0.354c-0.295-0.083-0.653-0.124-1.078-0.124h-1.693V9.333z"/>
<path fill="#FFFFFF" d="M54.102,9.873c0,0.714-0.124,1.372-0.37,1.971c-0.247,0.598-0.587,1.115-1.024,1.553
	c-0.436,0.435-0.952,0.779-1.546,1.025c-0.596,0.246-1.243,0.371-1.938,0.371c-0.698,0-1.342-0.125-1.936-0.371
	c-0.596-0.246-1.113-0.59-1.548-1.025c-0.436-0.438-0.779-0.955-1.025-1.553c-0.246-0.6-0.371-1.257-0.371-1.971
	c0-0.713,0.125-1.371,0.371-1.97c0.247-0.6,0.589-1.117,1.025-1.554c0.435-0.436,0.952-0.776,1.548-1.025
	c0.594-0.247,1.237-0.371,1.936-0.371c0.696,0,1.342,0.124,1.938,0.371c0.594,0.25,1.11,0.59,1.546,1.025
	c0.437,0.437,0.777,0.953,1.024,1.554C53.979,8.502,54.102,9.16,54.102,9.873z M53.07,9.873c0-0.539-0.088-1.052-0.264-1.538
	c-0.176-0.491-0.429-0.918-0.759-1.289c-0.331-0.37-0.735-0.667-1.211-0.887c-0.475-0.221-1.014-0.329-1.613-0.329
	s-1.138,0.108-1.613,0.329S46.732,6.676,46.4,7.046c-0.331,0.371-0.584,0.798-0.761,1.289c-0.176,0.486-0.264,1-0.264,1.538
	c0,0.537,0.088,1.052,0.264,1.542c0.178,0.488,0.431,0.916,0.761,1.286c0.331,0.373,0.733,0.667,1.209,0.887
	c0.475,0.221,1.014,0.332,1.613,0.332s1.138-0.111,1.613-0.332c0.476-0.221,0.88-0.514,1.211-0.887
	c0.331-0.371,0.583-0.799,0.759-1.286C52.982,10.925,53.07,10.41,53.07,9.873z"/>
<path fill="#FFFFFF" d="M62.604,11.063c0,0.387-0.046,0.8-0.139,1.236c-0.092,0.436-0.268,0.84-0.523,1.21
	c-0.255,0.369-0.605,0.674-1.051,0.92c-0.445,0.238-1.015,0.363-1.712,0.363c-0.706,0-1.279-0.125-1.72-0.363
	c-0.44-0.245-0.788-0.551-1.043-0.92c-0.255-0.371-0.43-0.773-0.521-1.21c-0.094-0.437-0.139-0.85-0.139-1.236V5.191h0.952v5.765
	c0,0.45,0.043,0.837,0.131,1.157c0.087,0.325,0.203,0.594,0.352,0.813c0.145,0.22,0.308,0.396,0.489,0.524
	c0.18,0.125,0.362,0.226,0.541,0.297c0.181,0.069,0.355,0.117,0.524,0.137c0.167,0.023,0.311,0.036,0.436,0.036
	c0.116,0,0.257-0.013,0.431-0.036c0.17-0.02,0.347-0.067,0.528-0.137c0.18-0.072,0.362-0.173,0.542-0.297
	c0.18-0.129,0.344-0.304,0.489-0.524c0.146-0.219,0.261-0.488,0.35-0.813c0.089-0.319,0.132-0.708,0.132-1.157V5.191h0.954v5.873
	H62.604z"/>
<path fill="#FFFFFF" d="M67.892,14.553H66.94V6.066h-3.134V5.191h7.219v0.875h-3.133V14.553z"/>
<path fill="#FFFFFF" d="M73.338,13.682h5.011v0.872h-5.963V5.191h5.805v0.875h-4.853V9.25l4.535,0v0.876h-4.535L73.338,13.682
	L73.338,13.682z"/>
<path fill="#FFFFFF" d="M51.284,17.006h3.105c0.584,0,1.166,0.098,1.751,0.292c0.588,0.192,1.118,0.487,1.586,0.878
	c0.473,0.392,0.856,0.88,1.145,1.468c0.292,0.586,0.436,1.268,0.436,2.043c0,0.785-0.144,1.467-0.436,2.047
	c-0.289,0.582-0.671,1.069-1.145,1.462c-0.468,0.391-0.998,0.685-1.586,0.879c-0.585,0.193-1.167,0.29-1.751,0.29h-3.105V17.006z
	 M52.236,25.494h1.85c0.713,0,1.333-0.108,1.858-0.323c0.523-0.217,0.961-0.503,1.309-0.86c0.348-0.355,0.605-0.761,0.775-1.214
	c0.167-0.456,0.248-0.924,0.248-1.409s-0.081-0.954-0.248-1.408c-0.17-0.453-0.427-0.858-0.775-1.216
	c-0.348-0.358-0.786-0.642-1.309-0.861c-0.525-0.214-1.145-0.325-1.858-0.325h-1.85V25.494z"/>
<path fill="#FFFFFF" d="M62.071,25.494h5.012v0.872h-5.962v-9.359h5.805v0.872h-4.854v3.188h4.537v0.872h-4.537L62.071,25.494
	L62.071,25.494z"/>
<path fill="#FFFFFF" d="M73.294,18.556c-0.412-0.61-1.016-0.914-1.809-0.914c-0.247,0-0.489,0.032-0.727,0.1
	c-0.24,0.066-0.453,0.168-0.643,0.303c-0.19,0.138-0.343,0.314-0.457,0.529c-0.115,0.217-0.17,0.47-0.17,0.76
	c0,0.424,0.117,0.752,0.355,0.988c0.238,0.231,0.535,0.422,0.888,0.571c0.352,0.154,0.736,0.286,1.157,0.405
	c0.42,0.118,0.804,0.275,1.158,0.476c0.353,0.197,0.648,0.461,0.885,0.787c0.239,0.326,0.358,0.771,0.358,1.333
	c0,0.424-0.093,0.805-0.272,1.146c-0.184,0.339-0.419,0.623-0.714,0.851c-0.298,0.229-0.626,0.405-0.992,0.529
	c-0.367,0.122-0.733,0.184-1.104,0.184c-0.571,0-1.118-0.108-1.633-0.322c-0.514-0.217-0.954-0.57-1.315-1.063l0.872-0.623
	c0.202,0.344,0.483,0.62,0.843,0.826c0.36,0.208,0.787,0.312,1.28,0.312c0.237,0,0.472-0.039,0.71-0.112
	c0.239-0.076,0.451-0.187,0.64-0.333c0.189-0.144,0.344-0.324,0.468-0.536c0.125-0.21,0.186-0.454,0.186-0.729
	c0-0.324-0.07-0.594-0.206-0.81c-0.136-0.216-0.318-0.399-0.542-0.543c-0.225-0.146-0.48-0.267-0.769-0.364
	c-0.284-0.096-0.582-0.193-0.883-0.29c-0.305-0.098-0.601-0.206-0.887-0.331c-0.288-0.123-0.542-0.281-0.768-0.468
	c-0.225-0.192-0.406-0.43-0.542-0.714c-0.135-0.289-0.203-0.646-0.203-1.079c0-0.45,0.085-0.843,0.256-1.178
	c0.172-0.333,0.401-0.609,0.688-0.834c0.285-0.22,0.609-0.381,0.971-0.486c0.361-0.107,0.731-0.159,1.111-0.159
	c0.529,0,1.006,0.083,1.44,0.249c0.432,0.168,0.835,0.466,1.204,0.888L73.294,18.556z"/>
<path fill="#E76453" d="M63.518,45.577c-0.592-0.91-1.333-1.641-2.215-2.171c-0.893-0.545-1.865-0.954-2.88-1.24
	c-1.032-0.305-2.003-0.595-2.881-0.882c-0.896-0.303-1.639-0.65-2.23-1.075c-0.593-0.411-0.881-1.019-0.881-1.791
	c0-0.5,0.125-0.91,0.365-1.261c0.243-0.332,0.563-0.605,0.957-0.817c0.394-0.211,0.804-0.364,1.245-0.453
	c0.453-0.109,0.875-0.154,1.288-0.154c0.713,0,1.47,0.137,2.261,0.425c0.786,0.272,1.424,0.713,1.896,1.306l3.929-4.294
	c-1.11-0.986-2.338-1.682-3.716-2.091c-1.368-0.426-2.792-0.639-4.263-0.639c-1.259,0-2.504,0.183-3.701,0.546
	c-1.197,0.348-2.259,0.881-3.169,1.594c-0.925,0.712-1.652,1.59-2.215,2.638c-0.546,1.06-0.82,2.274-0.82,3.668
	c0,1.442,0.306,2.609,0.897,3.49c0.604,0.88,1.349,1.592,2.259,2.138c0.91,0.528,1.882,0.957,2.94,1.273
	c1.047,0.319,2.034,0.64,2.927,0.954c0.911,0.32,1.672,0.717,2.261,1.154c0.606,0.455,0.911,1.076,0.911,1.865
	c0,0.454-0.123,0.865-0.35,1.215c-0.243,0.332-0.547,0.621-0.926,0.832c-0.378,0.229-0.805,0.395-1.29,0.502
	c-0.469,0.104-0.94,0.166-1.408,0.166c-0.957,0-1.882-0.211-2.774-0.651c-0.898-0.425-1.624-1.031-2.216-1.804l-3.856,4.661
	c1.195,1.048,2.454,1.827,3.81,2.3c1.455,0.517,3.019,0.773,4.7,0.773c1.353,0,2.626-0.168,3.84-0.516
	c1.213-0.332,2.276-0.865,3.199-1.578c0.908-0.7,1.638-1.592,2.187-2.669c0.529-1.077,0.802-2.337,0.802-3.792
	C64.398,47.683,64.11,46.471,63.518,45.577z"/>
<path fill="#E76453" d="M44.493,56.532c-1.436,1.832-3.21,3.513-5.636,3.513c-4.246,0-6.779-4.634-8.743-7.734l4.438-7.802
	c1.833-3.23,3.928-6.023,5.57-6.023c0.578,0,0.958,0.317,0.958,0.887c0,0.258-0.191,0.389-0.381,0.699
	c-0.188,0.257-0.386,0.697-0.386,1.462c0,1.458,1.714,2.474,3.049,2.474c0.807,0,1.474-0.207,1.988-0.571
	c-0.768-1.252-1.166-2.769-1.166-4.549c0-0.694,0.071-1.356,0.188-2.003c-0.71-0.321-1.532-0.491-2.405-0.491
	c-2.92,0-4.626,1.275-6.341,3.618c-1.714,2.281-3.168,4.814-4.625,7.355l-1.774,3.041l-6.152-13.948
	c4.567-1.141,13.31-3.926,13.31-9.759c0-5.262-5.384-7.226-9.888-7.226c-5.703,0-12.111,3.36-12.111,9.949
	c0,2.853,0.578,5.392,1.336,8.113C8.684,39.881,0,43.75,0,52.373c0,5.829,3.738,11.345,11.981,11.345
	c4.945,0,7.289-0.949,13.249-5.574c2.966,3.719,5.62,5.555,10.521,5.57c5.757-0.318,8.1-5.09,8.836-7.102
	C44.558,56.585,44.525,56.557,44.493,56.532z M26.247,21.06c3.101,0,4.563,1.894,4.563,4.746c0,5.331-3.485,7.805-8.243,9.2
	c-1.017-2.223-2.092-5.643-2.092-8.115C20.475,23.53,22.76,21.06,26.247,21.06z M16.608,60.672c-5.391,0-8.812-6.02-8.812-10.771
	c0-6.402,2.729-8.559,8.372-10.967c2.153,6.146,4.945,12.041,8.046,17.812C22.121,58.65,19.59,60.672,16.608,60.672z"/>
</svg>
