<?xml version="1.0" encoding="utf-8"?>
<!-- Generator: Adobe Illustrator 15.0.0, SVG Export Plug-In  -->
<!DOCTYPE svg PUBLIC "-//W3C//DTD SVG 1.1//EN" "http://www.w3.org/Graphics/SVG/1.1/DTD/svg11.dtd" [
	<!ENTITY ns_flows "http://ns.adobe.com/Flows/1.0/">
]>
<svg version="1.1"
	 xmlns="http://www.w3.org/2000/svg" xmlns:xlink="http://www.w3.org/1999/xlink" xmlns:a="http://ns.adobe.com/AdobeSVGViewerExtensions/3.0/"
	 x="0px" y="0px" width="27px" height="28px" viewBox="532.873 168 27 28"
	 overflow="visible" enable-background="new 532.873 168 27 28" xml:space="preserve">
<defs>
</defs>
<rect x="0.5" y="0.5" display="none" stroke="#FFFFFF" stroke-miterlimit="10" width="761" height="353"/>
<rect id="_x3C_Tranche_x3E__1_" x="533" y="168" fill="none" width="27" height="28"/>
<g>
	<g>
		<path fill="#FFFFFF" d="M552.208,178.105c2.574,0,4.668-2.093,4.668-4.666c0-2.574-2.094-4.668-4.668-4.668
			c-2.572,0-4.667,2.094-4.667,4.668c0,0.331,0.037,0.653,0.103,0.965l-5.668,3.904c-0.613-0.376-1.328-0.605-2.099-0.605
			c-2.229,0-4.04,1.811-4.04,4.038s1.811,4.04,4.04,4.04c1.136,0,2.161-0.475,2.896-1.234c0.037,0.035,0.066,0.08,0.111,0.109
			l5.193,3.403c-0.331,0.639-0.536,1.354-0.536,2.12c0,2.574,2.095,4.666,4.667,4.666c2.574,0,4.668-2.092,4.668-4.666
			c0-2.573-2.094-4.666-4.668-4.666c-1.171,0-2.23,0.448-3.051,1.165l-5.316-3.483c-0.057-0.039-0.12-0.053-0.183-0.074
			c0.159-0.434,0.259-0.895,0.259-1.381c0-0.809-0.246-1.561-0.657-2.195l5.081-3.499
			C549.181,177.289,550.6,178.105,552.208,178.105z"/>
	</g>
</g>
</svg>
